<svg xmlns="http://www.w3.org/2000/svg" width="880" height="250" viewBox="0 0 880 250" role="img" aria-label="Request path through the stack"><title>Request path through the stack</title><style>text{font-family:ui-monospace, SFMono-Regular, 'SF Mono', Menlo, Consolas, 'Liberation Mono', monospace}</style>
  <rect x="0.5" y="0.5" width="879" height="249" rx="10" fill="#f6f8fa" stroke="#d0d7de"/>
  <path d="M0.5 10.5a10 10 0 0 1 10-10h859a10 10 0 0 1 10 10v22h-879z" fill="#eaeef2" stroke="#d0d7de"/>
  <circle cx="20" cy="17" r="5" fill="#cf222e" opacity="0.85"/>
  <circle cx="38" cy="17" r="5" fill="#9a6700" opacity="0.85"/>
  <circle cx="56" cy="17" r="5" fill="#1a7f37" opacity="0.85"/>
  <text x="440" y="21" font-size="12" fill="#59636e" text-anchor="middle">trace — one request, end to end</text><line x1="129" y1="128" x2="619" y2="128" stroke="#d0d7de" stroke-width="2"/><circle class="p0" r="4.5" cx="129" cy="128" fill="#1a7f37" opacity="0.9"/><circle class="p1" r="4.5" cx="292" cy="128" fill="#1a7f37" opacity="0.9"/><circle class="p2" r="4.5" cx="455" cy="128" fill="#1a7f37" opacity="0.9"/><style>@keyframes flow{from{transform:translateX(0);opacity:0}8%{opacity:.95}92%{opacity:.95}to{transform:translateX(490px);opacity:0}}.p0{animation:flow 4.8s linear 0s infinite}.p1{animation:flow 4.8s linear 1.6s infinite}.p2{animation:flow 4.8s linear 3.2s infinite}</style><rect x="11" y="101" width="118" height="54" rx="8" fill="#ffffff" stroke="#0969da" stroke-width="1.4"/><text x="70" y="122" font-size="11" fill="#59636e" text-anchor="middle">client</text><text x="70" y="141" font-size="13" fill="#0969da" text-anchor="middle">browser</text><rect x="163" y="101" width="118" height="54" rx="8" fill="#ffffff" stroke="#1b7c83" stroke-width="1.4"/><text x="222" y="122" font-size="11" fill="#59636e" text-anchor="middle">edge</text><text x="222" y="141" font-size="13" fill="#1b7c83" text-anchor="middle">CDN / TLS</text><rect x="315" y="101" width="118" height="54" rx="8" fill="#ffffff" stroke="#1a7f37" stroke-width="1.4"/><text x="374" y="122" font-size="11" fill="#59636e" text-anchor="middle">api</text><text x="374" y="141" font-size="13" fill="#1a7f37" text-anchor="middle">FastAPI</text><rect x="467" y="101" width="118" height="54" rx="8" fill="#ffffff" stroke="#9a6700" stroke-width="1.4"/><text x="526" y="122" font-size="11" fill="#59636e" text-anchor="middle">queue</text><text x="526" y="141" font-size="13" fill="#9a6700" text-anchor="middle">Redis · arq</text><rect x="619" y="101" width="118" height="54" rx="8" fill="#ffffff" stroke="#8250df" stroke-width="1.4"/><text x="678" y="122" font-size="11" fill="#59636e" text-anchor="middle">db</text><text x="678" y="141" font-size="13" fill="#8250df" text-anchor="middle">Postgres RLS</text><path d="M619 166 H129" stroke="#9198a1" stroke-width="1.2" stroke-dasharray="4 5"/><text x="440" y="184" font-size="11.5" fill="#9198a1" text-anchor="middle">← 200 OK · p99 is a feature, not a graph</text><text x="22" y="58" font-size="13" fill="#59636e"><tspan fill="#1a7f37">❯</tspan> trace --follow  <tspan fill="#9198a1"># every box is somewhere I have had to debug at 2am</tspan></text><text x="22" y="232" font-size="11.5" fill="#9198a1">auth: OAuth/OIDC   ·   isolation: row-level security   ·   jobs: async workers   ·   ship: Docker + GH Actions</text></svg>